[info]
This is from http://www.yify-torrents.org 
I am not YIFY. I'm just uploading it cause it wasn't on the pirate bay.

[video]
Format                         : AVC
Format/Info                    : Advanced Video Codec
Format profile                 : High@L4.0
Format settings, CABAC         : Yes
Format settings, ReFrames      : 5 frames
Codec ID                       : avc1
Codec ID/Info                  : Advanced Video Coding
Duration                       : 1h 42mn
Bit rate                       : 1 862 Kbps
Maximum bit rate               : 12.1 Mbps
Width                          : 1 920 pixels
Height                         : 816 pixels
Display aspect ratio           : 2.35:1
Frame rate mode                : Constant
Frame rate                     : 23.976 fps
Color space                    : YUV
Chroma subsampling             : 4:2:0
Bit depth                      : 8 bits
Scan type                      : Progressive
Bits/(Pixel*Frame)             : 0.050
Stream size                    : 1.33 GiB (95%)

[audio]
Format                         : AAC
Format/Info                    : Advanced Audio Codec
Format profile                 : LC
Codec ID                       : 40
Duration                       : 1h 42mn
Bit rate mode                  : Variable
Bit rate                       : 96.0 Kbps
Maximum bit rate               : 153 Kbps
Channel(s)                     : 2 channels
Channel positions              : Front: L R
Sampling rate                  : 48.0 KHz
Compression mode               : Lossy
Stream size                    : 70.1 MiB (5%)